<?xml version="1.0" encoding="utf-8"?>
<!-- Generator: Adobe Illustrator 28.3.0, SVG Export Plug-In . SVG Version: 6.00 Build 0)  -->
<svg version="1.1" id="Layer_1" xmlns="http://www.w3.org/2000/svg" xmlns:xlink="http://www.w3.org/1999/xlink" x="0px" y="0px"
	 viewBox="0 0 400 100" style="enable-background:new 0 0 400 100;" xml:space="preserve">
<style type="text/css">
	.st0{fill:#FCFCFC;}
</style>
<g>
	<path class="st0" d="M26.5,62.7V11h16.3v51.7H26.5z M26.5,11h45.7v14.7H26.5V11z"/>
	<path class="st0" d="M130.9,41.5h-15.5v-7.8c0-1.8-0.3-3.4-0.8-4.8c-0.6-1.4-1.3-2.6-2.2-3.5c-0.9-0.9-2.1-1.6-3.5-2
		s-2.9-0.7-4.6-0.7c-1.6,0-3.1,0.3-4.4,0.9c-1.4,0.6-2.6,1.5-3.6,2.6c-1,1.2-1.8,2.6-2.3,4.4c-0.6,1.8-0.8,3.8-0.8,6.2
		c0,2.6,0.3,4.8,0.8,6.6c0.6,1.8,1.3,3.2,2.4,4.3c1,1.1,2.3,1.9,3.8,2.4s3.2,0.7,5.2,0.7c1.5,0,2.9-0.2,4.2-0.5
		c1.3-0.3,2.4-0.7,3.3-1.2s1.6-1.1,2.1-1.9c0.5-0.7,0.8-1.5,0.8-2.2h14.6c0,5.7-2.1,10.3-6.4,13.9c-4.2,3.5-10.4,5.3-18.6,5.3
		c-9.8,0-17.1-2.3-21.9-6.9s-7.2-11.4-7.2-20.5c0-8.8,2.3-15.6,7-20.3s11.4-7.1,20.2-7.1c9.8,0,16.8,2.5,21.1,7.4
		c4.2,5,6.4,12.5,6.4,22.5v2.2H130.9z M83.2,30.3h42.9v11.2H83.2V30.3z"/>
	<path class="st0" d="M138,62.7V11h16.3v51.7H138z M175.7,62.7V36.2c0-1.9-0.2-3.6-0.5-5c-0.3-1.4-0.8-2.6-1.6-3.6s-1.8-1.8-3.1-2.3
		s-3-0.8-5.1-0.8c-3.6,0-6.3,1-8.2,3.1c-1.9,2-2.8,5.1-2.8,9.3v1.4h-4.6v-1.4c0-4,0.4-7.7,1.2-11.1s2.1-6.3,3.8-8.7s3.9-4.3,6.5-5.6
		c2.7-1.3,5.8-2,9.4-2c3.4,0,6.5,0.4,9.2,1.2s4.9,2.2,6.7,4.1s3.2,4.5,4.1,7.7c0.9,3.2,1.3,7.2,1.3,12.1v28.2L175.7,62.7L175.7,62.7
		z"/>
	<path class="st0" d="M251.8,19.9C251.8,19.9,251.8,20,251.8,19.9L251.8,19.9L251.8,19.9z"/>
	<path class="st0" d="M252.9,27.3v35.4h-16.3v-24l-19.4,24h-21l30-37h-23.9V11h36c6.1,0,11.3,3.7,13.5,9l0,0
		c0.7,1.7,1.1,3.7,1.1,5.7C252.9,25.6,252.9,26.7,252.9,27.3z"/>
	<path class="st0" d="M299.6,11.1c3.1,1.1,5.8,2.7,7.9,4.8c2.1,2,3.8,4.4,4.9,7.1s1.7,5.6,1.7,8.7h-14.7c0-1.1-0.2-2.1-0.7-3
		s-1.2-1.6-2.2-2.2s-2.1-1.1-3.4-1.4s-2.7-0.5-4.4-0.5c-1.7,0-3.3,0.2-4.8,0.6c-1.4,0.4-2.7,1.1-3.7,2.1s-1.8,2.2-2.4,3.8
		c-0.6,1.6-0.9,3.5-0.9,5.7s0.3,4.2,0.9,5.8s1.5,2.9,2.7,3.9s2.6,1.7,4.1,2.1c1.6,0.4,3.3,0.6,5.2,0.6c1.7,0,3.1-0.2,4.4-0.5
		s2.3-0.8,3.2-1.4c0.8-0.6,1.5-1.3,1.9-2.2s0.7-1.9,0.7-3h14.6c0,3.1-0.5,6-1.6,8.7c-1,2.7-2.6,5.1-4.7,7.1s-4.8,3.6-8,4.8
		c-3.2,1.1-7,1.7-11.3,1.7c-9.5,0-16.7-2.3-21.6-6.9s-7.3-11.4-7.3-20.5s2.3-15.9,6.8-20.5c4.6-4.6,11.9-6.9,21.9-6.9
		C292.9,9.4,296.5,10,299.6,11.1z"/>
	<path class="st0" d="M373.5,41.5H358v-7.8c0-1.8-0.3-3.4-0.8-4.8c-0.6-1.4-1.3-2.6-2.2-3.5c-0.9-0.9-2.1-1.6-3.5-2
		s-2.9-0.7-4.6-0.7c-1.6,0-3.1,0.3-4.4,0.9c-1.4,0.6-2.6,1.5-3.6,2.6c-1,1.2-1.8,2.6-2.3,4.4c-0.6,1.8-0.8,3.8-0.8,6.2
		c0,2.6,0.3,4.8,0.8,6.6c0.6,1.8,1.3,3.2,2.4,4.3c1,1.1,2.3,1.9,3.8,2.4s3.2,0.7,5.2,0.7c1.5,0,2.9-0.2,4.2-0.5
		c1.3-0.3,2.4-0.7,3.3-1.2s1.6-1.1,2.1-1.9c0.5-0.7,0.8-1.5,0.8-2.2H373c0,5.7-2.1,10.3-6.4,13.9c-4.2,3.5-10.4,5.3-18.6,5.3
		c-9.8,0-17.1-2.3-21.9-6.9s-7.2-11.4-7.2-20.5c0-8.8,2.3-15.6,7-20.3s11.4-7.1,20.2-7.1c9.8,0,16.8,2.5,21.1,7.4
		c4.2,5,6.4,12.5,6.4,22.5v2.2H373.5z M325.8,30.3h42.9v11.2h-42.9V30.3z"/>
</g>
<g>
	<path class="st0" d="M27.4,76.1h8.4v1.4h-6.9v3.3h6.3v1.4h-6.3v3.3h7V87h-8.5C27.4,87,27.4,76.1,27.4,76.1z"/>
	<path class="st0" d="M53.5,87h-1.9l-3.4-4.2L44.7,87h-1.9l4.4-5.4l-4.4-5.4h1.9l3.4,4.2l3.4-4.2h1.9L49,81.6L53.5,87z"/>
	<path class="st0" d="M60.7,76.1h4.9c3.1,0,4.4,1.2,4.4,3.6s-1.3,3.6-4.4,3.6h-3.4V87h-1.5C60.7,87,60.7,76.1,60.7,76.1z M65.6,82
		c2.1,0,2.8-0.7,2.8-2.2s-0.7-2.2-2.8-2.2h-3.4V82H65.6z"/>
	<path class="st0" d="M77.7,76.1h8.4v1.4h-6.9v3.3h6.3v1.4h-6.3v3.3h7V87h-8.5V76.1z"/>
	<path class="st0" d="M93.8,76.1h4.9c3.1,0,4.4,1.1,4.4,3.3c0,2-1.1,3.2-3.6,3.3l3.4,4.3H101l-3.4-4.2h-2.3V87h-1.5V76.1z
		 M98.7,81.4c2.1,0,2.8-0.7,2.8-1.9c0-1.3-0.7-1.9-2.8-1.9h-3.4v3.8H98.7z"/>
	<path class="st0" d="M113.9,77.5h-3.6v-1.4h8.7v1.4h-3.6V87h-1.5V77.5z"/>
	<path class="st0" d="M131.4,75.9c3.7,0,5.5,1.9,5.5,5.7c0,3.7-1.8,5.7-5.5,5.7s-5.5-1.9-5.5-5.7C125.9,77.8,127.7,75.9,131.4,75.9z
		 M131.4,85.8c2.6,0,3.9-1.4,3.9-4.2s-1.3-4.2-3.9-4.2c-2.7,0-3.9,1.4-3.9,4.2S128.8,85.8,131.4,85.8z"/>
	<path class="st0" d="M144.4,79c0-2.2,1.4-3.1,4.6-3.1c2.8,0,4.5,1,4.5,3.7h-1.4c0-2-1.5-2.2-3.2-2.2c-2.3,0-3,0.5-3,1.6
		s1.1,1.5,3.2,1.8c2.9,0.5,4.5,1.2,4.5,3.4c0,2.2-1.5,3.1-4.8,3.1c-2.9,0-4.6-1-4.6-3.7h1.4c0,2,1.6,2.3,3.3,2.3c2,0,3-0.5,3-1.6
		c0-1.6-2-1.6-3.4-1.9C146.2,81.8,144.4,81.2,144.4,79z"/>
	<path class="st0" d="M171.9,76.1h8.4v1.4h-6.9v3.3h6.3v1.4h-6.3v3.3h7V87h-8.5V76.1z"/>
	<path class="st0" d="M188,76.1h1.5l6.2,8.4v-8.4h1.5V87h-1.5l-6.2-8.4V87H188V76.1z"/>
	<path class="st0" d="M218.9,77.5h-3.6v-1.4h8.7v1.4h-3.6V87h-1.5L218.9,77.5L218.9,77.5z"/>
	<path class="st0" d="M231.5,76.1h8.4v1.4H233v3.3h6.3v1.4H233v3.3h7V87h-8.5V76.1z"/>
	<path class="st0" d="M247.3,81.6c0-3.8,1.7-5.7,5.3-5.7c3.3,0,5.2,1.1,5.2,4h-1.4c0-2.2-2-2.6-3.8-2.6c-2.7,0-3.7,1.3-3.7,4.2
		c0,3,1.4,4.3,4.2,4.3c1.6,0,3.4-0.3,3.4-2.4h1.4c0,2.9-1.9,3.9-4.9,3.9C249.2,87.2,247.3,85.4,247.3,81.6z"/>
	<path class="st0" d="M265.5,76.1h1.5l6.2,8.4v-8.4h1.5V87h-1.5l-6.2-8.4V87h-1.5V76.1z"/>
	<path class="st0" d="M287.9,75.9c3.7,0,5.5,1.9,5.5,5.7c0,3.7-1.8,5.7-5.5,5.7s-5.5-1.9-5.5-5.7C282.5,77.8,284.2,75.9,287.9,75.9z
		 M287.9,85.8c2.6,0,3.9-1.4,3.9-4.2s-1.3-4.2-3.9-4.2c-2.7,0-3.9,1.4-3.9,4.2S285.3,85.8,287.9,85.8z"/>
	<path class="st0" d="M301.1,76.1h1.5v9.5h6.8V87h-8.3V76.1z"/>
	<path class="st0" d="M321.8,75.9c3.7,0,5.5,1.9,5.5,5.7c0,3.7-1.8,5.7-5.5,5.7s-5.5-1.9-5.5-5.7S318.1,75.9,321.8,75.9z
		 M321.8,85.8c2.6,0,3.9-1.4,3.9-4.2s-1.3-4.2-3.9-4.2c-2.7,0-3.9,1.4-3.9,4.2S319.2,85.8,321.8,85.8z"/>
	<path class="st0" d="M334.7,81.6c0-3.8,1.7-5.7,5.3-5.7c3.3,0,5.2,1.1,5.2,4h-1.4c0-2.2-2-2.6-3.8-2.6c-2.7,0-3.7,1.3-3.7,4.2
		c0,3,1.4,4.3,3.7,4.3c1.7,0,2.7-1.4,3.5-3h-3.4v-1.3h5.2V87h-1.4v-2.8c-0.9,1.7-2.3,3-4.2,3C336.5,87.2,334.7,85.4,334.7,81.6z"/>
	<path class="st0" d="M354.5,71.5l0.8,0.6l-2.2,2.9l-0.6-0.4L354.5,71.5z M353.2,76.1h1.5V87h-1.5V76.1z"/>
	<path class="st0" d="M366.4,76.1h1.6l4.5,10.9H371l-0.9-2h-5.8l-0.9,2h-1.6L366.4,76.1z M369.5,83.6l-2.3-5.5l-2.3,5.5H369.5z"/>
</g>
</svg>
